# Blender v2.66 (sub 1) OBJ File: 'interiorcube.blend'
# www.blender.org
mtllib interiorcube.mtl
o Cube
v 39.999985 -40.000000 -39.999977
v 39.999985 -40.000000 39.999981
v -39.999989 -40.000000 39.999973
v -39.999966 -40.000000 -39.999992
v 40.000004 40.000000 -39.999958
v 39.999954 40.000000 40.000004
v -39.999996 40.000000 39.999966
v -39.999981 40.000000 -39.999981
vt 0.999994 0.999993
vt -23.999989 0.999999
vt -23.999996 -23.999992
vt 0.000000 0.999988
vt -0.000014 -24.000002
vt -25.000000 -23.999989
vt 0.000008 0.000000
vt 25.000000 0.000000
vt 24.999994 25.000000
vt 0.000000 0.000000
vt -24.999992 0.000000
vt -0.000006 -25.000000
vt 0.999986 25.000000
vt 0.000010 25.000000
vt 0.999994 -23.999994
vt -24.999992 0.999994
vt -24.999989 -25.000000
vn -0.000000 1.000000 0.000000
vn 0.000000 -1.000000 0.000000
vn 1.000000 0.000000 0.000000
vn -0.000000 -0.000000 1.000000
vn 0.000000 0.000000 -1.000000
usemtl Material
s off
f 1/1/1 4/2/1 3/3/1
f 5/4/2 6/5/2 7/6/2
f 3/7/3 4/8/3 8/9/3
f 5/10/4 8/11/4 1/12/4
f 6/13/5 2/3/5 3/14/5
f 2/15/1 1/1/1 3/3/1
f 8/16/2 5/4/2 7/6/2
f 7/14/3 3/7/3 8/9/3
f 8/11/4 4/17/4 1/12/4
f 7/5/5 6/13/5 3/14/5
